<?xml version="1.0" encoding="UTF-8" standalone="no"?>
<!DOCTYPE svg PUBLIC "-//W3C//DTD SVG 1.1//EN"
 "http://www.w3.org/Graphics/SVG/1.1/DTD/svg11.dtd">
<!-- Generated by graphviz version 2.43.0 (0)
 -->
<!-- Title: %3 Pages: 1 -->
<svg width="1855pt" height="1124pt"
 viewBox="0.00 0.00 1855.00 1124.00" xmlns="http://www.w3.org/2000/svg" xmlns:xlink="http://www.w3.org/1999/xlink">
<g id="graph0" class="graph" transform="scale(1 1) rotate(0) translate(4 1120)">
<title>%3</title>
<polygon fill="white" stroke="transparent" points="-4,4 -4,-1120 1851,-1120 1851,4 -4,4"/>
<!-- bd -->
<g id="node1" class="node">
<title>bd</title>
<ellipse fill="none" stroke="black" cx="317" cy="-1098" rx="27" ry="18"/>
<text text-anchor="middle" x="317" y="-1094.3" font-family="Times,serif" font-size="14.00">bd</text>
</g>
<!-- lg -->
<g id="node2" class="node">
<title>lg</title>
<ellipse fill="none" stroke="black" cx="317" cy="-1026" rx="27" ry="18"/>
<text text-anchor="middle" x="317" y="-1022.3" font-family="Times,serif" font-size="14.00">lg</text>
</g>
<!-- bd&#45;&gt;lg -->
<g id="edge1" class="edge">
<title>bd&#45;&gt;lg</title>
<path fill="none" stroke="black" d="M317,-1079.7C317,-1071.98 317,-1062.71 317,-1054.11"/>
<polygon fill="black" stroke="black" points="320.5,-1054.1 317,-1044.1 313.5,-1054.1 320.5,-1054.1"/>
</g>
<!-- cm -->
<g id="node3" class="node">
<title>cm</title>
<ellipse fill="none" stroke="black" cx="262" cy="-954" rx="27" ry="18"/>
<text text-anchor="middle" x="262" y="-950.3" font-family="Times,serif" font-size="14.00">cm</text>
</g>
<!-- bd&#45;&gt;cm -->
<g id="edge2" class="edge">
<title>bd&#45;&gt;cm</title>
<path fill="none" stroke="black" d="M304.25,-1081.7C296.44,-1071.59 286.85,-1057.71 281,-1044 272.54,-1024.17 267.7,-1000.2 265.02,-982.13"/>
<polygon fill="black" stroke="black" points="268.46,-981.43 263.66,-971.99 261.52,-982.37 268.46,-981.43"/>
</g>
<!-- lg&#45;&gt;cm -->
<g id="edge25" class="edge">
<title>lg&#45;&gt;cm</title>
<path fill="none" stroke="black" d="M305.07,-1009.81C297.79,-1000.55 288.34,-988.52 280.15,-978.09"/>
<polygon fill="black" stroke="black" points="282.84,-975.86 273.91,-970.16 277.34,-980.18 282.84,-975.86"/>
</g>
<!-- ft -->
<g id="node7" class="node">
<title>ft</title>
<ellipse fill="none" stroke="black" cx="355" cy="-882" rx="27" ry="18"/>
<text text-anchor="middle" x="355" y="-878.3" font-family="Times,serif" font-size="14.00">ft</text>
</g>
<!-- cm&#45;&gt;ft -->
<g id="edge20" class="edge">
<title>cm&#45;&gt;ft</title>
<path fill="none" stroke="black" d="M276.09,-938.15C289.49,-927.01 309.7,-911.74 326.4,-900.09"/>
<polygon fill="black" stroke="black" points="328.49,-902.9 334.76,-894.37 324.53,-897.13 328.49,-902.9"/>
</g>
<!-- jp -->
<g id="node22" class="node">
<title>jp</title>
<ellipse fill="none" stroke="black" cx="112" cy="-594" rx="27" ry="18"/>
<text text-anchor="middle" x="112" y="-590.3" font-family="Times,serif" font-size="14.00">jp</text>
</g>
<!-- cm&#45;&gt;jp -->
<g id="edge18" class="edge">
<title>cm&#45;&gt;jp</title>
<path fill="none" stroke="black" d="M235.87,-949.05C176.78,-938.48 38,-903.78 38,-811 38,-811 38,-811 38,-737 38,-690.59 69.47,-644.33 91.36,-617.75"/>
<polygon fill="black" stroke="black" points="94.27,-619.73 98.08,-609.84 88.94,-615.2 94.27,-619.73"/>
</g>
<!-- sk -->
<g id="node23" class="node">
<title>sk</title>
<ellipse fill="none" stroke="black" cx="131" cy="-738" rx="27" ry="18"/>
<text text-anchor="middle" x="131" y="-734.3" font-family="Times,serif" font-size="14.00">sk</text>
</g>
<!-- cm&#45;&gt;sk -->
<g id="edge19" class="edge">
<title>cm&#45;&gt;sk</title>
<path fill="none" stroke="black" d="M241.83,-941.92C210.51,-923.3 151.81,-882.38 133,-828 126.11,-808.07 125.99,-784.1 127.39,-766.06"/>
<polygon fill="black" stroke="black" points="130.89,-766.23 128.38,-755.94 123.92,-765.55 130.89,-766.23"/>
</g>
<!-- dt -->
<g id="node24" class="node">
<title>dt</title>
<ellipse fill="none" stroke="black" cx="848" cy="-810" rx="27" ry="18"/>
<text text-anchor="middle" x="848" y="-806.3" font-family="Times,serif" font-size="14.00">dt</text>
</g>
<!-- cm&#45;&gt;dt -->
<g id="edge21" class="edge">
<title>cm&#45;&gt;dt</title>
<path fill="none" stroke="black" d="M289.11,-952.25C379.03,-949.42 666.45,-937.59 750,-900 782.75,-885.27 812.03,-855.36 829.88,-834.29"/>
<polygon fill="black" stroke="black" points="832.7,-836.37 836.36,-826.43 827.3,-831.92 832.7,-836.37"/>
</g>
<!-- gb -->
<g id="node25" class="node">
<title>gb</title>
<ellipse fill="none" stroke="black" cx="226" cy="-378" rx="27" ry="18"/>
<text text-anchor="middle" x="226" y="-374.3" font-family="Times,serif" font-size="14.00">gb</text>
</g>
<!-- cm&#45;&gt;gb -->
<g id="edge22" class="edge">
<title>cm&#45;&gt;gb</title>
<path fill="none" stroke="black" d="M234.97,-952.47C192.45,-950.33 109.1,-940.81 54,-900 16.82,-872.46 0,-857.27 0,-811 0,-811 0,-811 0,-521 0,-432.55 125.64,-397.06 189.56,-384.72"/>
<polygon fill="black" stroke="black" points="190.43,-388.12 199.63,-382.87 189.16,-381.24 190.43,-388.12"/>
</g>
<!-- broadcaster -->
<g id="node4" class="node">
<title>broadcaster</title>
<ellipse fill="none" stroke="black" cx="946" cy="-954" rx="66.09" ry="18"/>
<text text-anchor="middle" x="946" y="-950.3" font-family="Times,serif" font-size="14.00">broadcaster</text>
</g>
<!-- ct -->
<g id="node5" class="node">
<title>ct</title>
<ellipse fill="none" stroke="black" cx="714" cy="-882" rx="27" ry="18"/>
<text text-anchor="middle" x="714" y="-878.3" font-family="Times,serif" font-size="14.00">ct</text>
</g>
<!-- broadcaster&#45;&gt;ct -->
<g id="edge3" class="edge">
<title>broadcaster&#45;&gt;ct</title>
<path fill="none" stroke="black" d="M903.45,-940.16C858.61,-926.63 788.91,-905.6 747.72,-893.18"/>
<polygon fill="black" stroke="black" points="748.73,-889.82 738.15,-890.29 746.71,-896.53 748.73,-889.82"/>
</g>
<!-- hr -->
<g id="node6" class="node">
<title>hr</title>
<ellipse fill="none" stroke="black" cx="1179" cy="-882" rx="27" ry="18"/>
<text text-anchor="middle" x="1179" y="-878.3" font-family="Times,serif" font-size="14.00">hr</text>
</g>
<!-- broadcaster&#45;&gt;hr -->
<g id="edge4" class="edge">
<title>broadcaster&#45;&gt;hr</title>
<path fill="none" stroke="black" d="M988.74,-940.16C1033.76,-926.63 1103.77,-905.6 1145.13,-893.18"/>
<polygon fill="black" stroke="black" points="1146.18,-896.52 1154.75,-890.29 1144.16,-889.81 1146.18,-896.52"/>
</g>
<!-- broadcaster&#45;&gt;ft -->
<g id="edge5" class="edge">
<title>broadcaster&#45;&gt;ft</title>
<path fill="none" stroke="black" d="M886.63,-945.97C765.04,-931.57 490.85,-899.09 391.67,-887.34"/>
<polygon fill="black" stroke="black" points="391.89,-883.84 381.54,-886.14 391.06,-890.8 391.89,-883.84"/>
</g>
<!-- qm -->
<g id="node8" class="node">
<title>qm</title>
<ellipse fill="none" stroke="black" cx="1590" cy="-882" rx="27" ry="18"/>
<text text-anchor="middle" x="1590" y="-878.3" font-family="Times,serif" font-size="14.00">qm</text>
</g>
<!-- broadcaster&#45;&gt;qm -->
<g id="edge6" class="edge">
<title>broadcaster&#45;&gt;qm</title>
<path fill="none" stroke="black" d="M1006.3,-946.45C1137.8,-932.15 1447.09,-898.53 1553.38,-886.98"/>
<polygon fill="black" stroke="black" points="1554.03,-890.43 1563.59,-885.87 1553.27,-883.47 1554.03,-890.43"/>
</g>
<!-- mj -->
<g id="node36" class="node">
<title>mj</title>
<ellipse fill="none" stroke="black" cx="650" cy="-810" rx="27" ry="18"/>
<text text-anchor="middle" x="650" y="-806.3" font-family="Times,serif" font-size="14.00">mj</text>
</g>
<!-- ct&#45;&gt;mj -->
<g id="edge98" class="edge">
<title>ct&#45;&gt;mj</title>
<path fill="none" stroke="black" d="M700.43,-866.15C691.69,-856.6 680.17,-843.99 670.34,-833.25"/>
<polygon fill="black" stroke="black" points="672.88,-830.84 663.55,-825.82 667.72,-835.57 672.88,-830.84"/>
</g>
<!-- mh -->
<g id="node38" class="node">
<title>mh</title>
<ellipse fill="none" stroke="black" cx="691" cy="-666" rx="27" ry="18"/>
<text text-anchor="middle" x="691" y="-662.3" font-family="Times,serif" font-size="14.00">mh</text>
</g>
<!-- ct&#45;&gt;mh -->
<g id="edge97" class="edge">
<title>ct&#45;&gt;mh</title>
<path fill="none" stroke="black" d="M708.35,-864.21C700.82,-827.34 691.05,-739.04 689.24,-694.17"/>
<polygon fill="black" stroke="black" points="692.74,-693.91 688.96,-684.01 685.74,-694.1 692.74,-693.91"/>
</g>
<!-- zz -->
<g id="node11" class="node">
<title>zz</title>
<ellipse fill="none" stroke="black" cx="1179" cy="-738" rx="27" ry="18"/>
<text text-anchor="middle" x="1179" y="-734.3" font-family="Times,serif" font-size="14.00">zz</text>
</g>
<!-- hr&#45;&gt;zz -->
<g id="edge84" class="edge">
<title>hr&#45;&gt;zz</title>
<path fill="none" stroke="black" d="M1174.45,-864.15C1171.85,-839.92 1171.56,-794.96 1173.56,-766.05"/>
<polygon fill="black" stroke="black" points="1177.07,-766.09 1174.45,-755.82 1170.1,-765.49 1177.07,-766.09"/>
</g>
<!-- zq -->
<g id="node56" class="node">
<title>zq</title>
<ellipse fill="none" stroke="black" cx="1243" cy="-810" rx="27" ry="18"/>
<text text-anchor="middle" x="1243" y="-806.3" font-family="Times,serif" font-size="14.00">zq</text>
</g>
<!-- hr&#45;&gt;zq -->
<g id="edge85" class="edge">
<title>hr&#45;&gt;zq</title>
<path fill="none" stroke="black" d="M1192.57,-866.15C1201.31,-856.6 1212.83,-843.99 1222.66,-833.25"/>
<polygon fill="black" stroke="black" points="1225.28,-835.57 1229.45,-825.82 1220.12,-830.84 1225.28,-835.57"/>
</g>
<!-- ft&#45;&gt;cm -->
<g id="edge101" class="edge">
<title>ft&#45;&gt;cm</title>
<path fill="none" stroke="black" d="M341.18,-897.63C327.74,-908.81 307.31,-924.26 290.48,-936"/>
<polygon fill="black" stroke="black" points="288.34,-933.22 282.06,-941.75 292.29,-939 288.34,-933.22"/>
</g>
<!-- qn -->
<g id="node55" class="node">
<title>qn</title>
<ellipse fill="none" stroke="black" cx="169" cy="-810" rx="27" ry="18"/>
<text text-anchor="middle" x="169" y="-806.3" font-family="Times,serif" font-size="14.00">qn</text>
</g>
<!-- ft&#45;&gt;qn -->
<g id="edge100" class="edge">
<title>ft&#45;&gt;qn</title>
<path fill="none" stroke="black" d="M331.82,-872.28C298.92,-859.9 238.56,-837.18 201.29,-823.15"/>
<polygon fill="black" stroke="black" points="202.48,-819.86 191.89,-819.61 200.02,-826.41 202.48,-819.86"/>
</g>
<!-- kd -->
<g id="node21" class="node">
<title>kd</title>
<ellipse fill="none" stroke="black" cx="1622" cy="-666" rx="27" ry="18"/>
<text text-anchor="middle" x="1622" y="-662.3" font-family="Times,serif" font-size="14.00">kd</text>
</g>
<!-- qm&#45;&gt;kd -->
<g id="edge52" class="edge">
<title>qm&#45;&gt;kd</title>
<path fill="none" stroke="black" d="M1588.69,-863.85C1590.7,-826.57 1603.7,-737.94 1613.42,-693.44"/>
<polygon fill="black" stroke="black" points="1616.84,-694.17 1615.68,-683.64 1610.02,-692.6 1616.84,-694.17"/>
</g>
<!-- kb -->
<g id="node45" class="node">
<title>kb</title>
<ellipse fill="none" stroke="black" cx="1558" cy="-810" rx="27" ry="18"/>
<text text-anchor="middle" x="1558" y="-806.3" font-family="Times,serif" font-size="14.00">kb</text>
</g>
<!-- qm&#45;&gt;kb -->
<g id="edge51" class="edge">
<title>qm&#45;&gt;kb</title>
<path fill="none" stroke="black" d="M1582.42,-864.41C1578.63,-856.13 1573.97,-845.92 1569.73,-836.66"/>
<polygon fill="black" stroke="black" points="1572.87,-835.11 1565.53,-827.47 1566.5,-838.02 1572.87,-835.11"/>
</g>
<!-- bh -->
<g id="node9" class="node">
<title>bh</title>
<ellipse fill="none" stroke="black" cx="1272" cy="-594" rx="27" ry="18"/>
<text text-anchor="middle" x="1272" y="-590.3" font-family="Times,serif" font-size="14.00">bh</text>
</g>
<!-- lj -->
<g id="node10" class="node">
<title>lj</title>
<ellipse fill="none" stroke="black" cx="1234" cy="-522" rx="27" ry="18"/>
<text text-anchor="middle" x="1234" y="-518.3" font-family="Times,serif" font-size="14.00">lj</text>
</g>
<!-- bh&#45;&gt;lj -->
<g id="edge7" class="edge">
<title>bh&#45;&gt;lj</title>
<path fill="none" stroke="black" d="M1263.19,-576.76C1258.58,-568.28 1252.84,-557.71 1247.68,-548.2"/>
<polygon fill="black" stroke="black" points="1250.61,-546.27 1242.77,-539.15 1244.46,-549.61 1250.61,-546.27"/>
</g>
<!-- lj&#45;&gt;zz -->
<g id="edge32" class="edge">
<title>lj&#45;&gt;zz</title>
<path fill="none" stroke="black" d="M1229.74,-539.93C1222.34,-569.29 1206.62,-631.51 1193,-684 1190.82,-692.42 1188.41,-701.58 1186.21,-709.89"/>
<polygon fill="black" stroke="black" points="1182.76,-709.26 1183.58,-719.82 1189.52,-711.05 1182.76,-709.26"/>
</g>
<!-- cx -->
<g id="node32" class="node">
<title>cx</title>
<ellipse fill="none" stroke="black" cx="1196" cy="-450" rx="27" ry="18"/>
<text text-anchor="middle" x="1196" y="-446.3" font-family="Times,serif" font-size="14.00">cx</text>
</g>
<!-- lj&#45;&gt;cx -->
<g id="edge31" class="edge">
<title>lj&#45;&gt;cx</title>
<path fill="none" stroke="black" d="M1225.19,-504.76C1220.58,-496.28 1214.84,-485.71 1209.68,-476.2"/>
<polygon fill="black" stroke="black" points="1212.61,-474.27 1204.77,-467.15 1206.46,-477.61 1212.61,-474.27"/>
</g>
<!-- zz&#45;&gt;hr -->
<g id="edge9" class="edge">
<title>zz&#45;&gt;hr</title>
<path fill="none" stroke="black" d="M1183.55,-755.82C1186.15,-780.05 1186.44,-825 1184.44,-853.93"/>
<polygon fill="black" stroke="black" points="1180.93,-853.89 1183.55,-864.15 1187.9,-854.49 1180.93,-853.89"/>
</g>
<!-- zz&#45;&gt;bh -->
<g id="edge11" class="edge">
<title>zz&#45;&gt;bh</title>
<path fill="none" stroke="black" d="M1195.04,-723.37C1206.16,-713.31 1220.75,-698.86 1231,-684 1244.53,-664.39 1255.53,-639.59 1262.71,-621.16"/>
<polygon fill="black" stroke="black" points="1266.05,-622.24 1266.31,-611.65 1259.5,-619.76 1266.05,-622.24"/>
</g>
<!-- th -->
<g id="node12" class="node">
<title>th</title>
<ellipse fill="none" stroke="black" cx="1370" cy="-666" rx="27" ry="18"/>
<text text-anchor="middle" x="1370" y="-662.3" font-family="Times,serif" font-size="14.00">th</text>
</g>
<!-- zz&#45;&gt;th -->
<g id="edge8" class="edge">
<title>zz&#45;&gt;th</title>
<path fill="none" stroke="black" d="M1202.53,-729.12C1232.18,-719.09 1284.65,-701.02 1329,-684 1331.93,-682.88 1334.96,-681.68 1337.99,-680.46"/>
<polygon fill="black" stroke="black" points="1339.59,-683.59 1347.53,-676.57 1336.95,-677.11 1339.59,-683.59"/>
</g>
<!-- jk -->
<g id="node13" class="node">
<title>jk</title>
<ellipse fill="none" stroke="black" cx="1158" cy="-378" rx="27" ry="18"/>
<text text-anchor="middle" x="1158" y="-374.3" font-family="Times,serif" font-size="14.00">jk</text>
</g>
<!-- zz&#45;&gt;jk -->
<g id="edge10" class="edge">
<title>zz&#45;&gt;jk</title>
<path fill="none" stroke="black" d="M1171.49,-720.34C1160.42,-694.2 1141,-641.7 1141,-595 1141,-595 1141,-595 1141,-521 1141,-480.71 1147.83,-434.44 1152.83,-405.96"/>
<polygon fill="black" stroke="black" points="1156.3,-406.43 1154.64,-395.97 1149.42,-405.19 1156.3,-406.43"/>
</g>
<!-- js -->
<g id="node14" class="node">
<title>js</title>
<ellipse fill="none" stroke="black" cx="972" cy="-666" rx="27" ry="18"/>
<text text-anchor="middle" x="972" y="-662.3" font-family="Times,serif" font-size="14.00">js</text>
</g>
<!-- zz&#45;&gt;js -->
<g id="edge12" class="edge">
<title>zz&#45;&gt;js</title>
<path fill="none" stroke="black" d="M1154.59,-729.91C1122.03,-720.29 1062.71,-702.21 1013,-684 1009.89,-682.86 1006.67,-681.62 1003.46,-680.36"/>
<polygon fill="black" stroke="black" points="1004.58,-677.03 994,-676.52 1001.95,-683.52 1004.58,-677.03"/>
</g>
<!-- th&#45;&gt;bh -->
<g id="edge33" class="edge">
<title>th&#45;&gt;bh</title>
<path fill="none" stroke="black" d="M1352.03,-652.16C1336.97,-641.41 1315.27,-625.91 1298.27,-613.76"/>
<polygon fill="black" stroke="black" points="1300.03,-610.72 1289.86,-607.76 1295.96,-616.42 1300.03,-610.72"/>
</g>
<!-- fs -->
<g id="node29" class="node">
<title>fs</title>
<ellipse fill="none" stroke="black" cx="1120" cy="-306" rx="27" ry="18"/>
<text text-anchor="middle" x="1120" y="-302.3" font-family="Times,serif" font-size="14.00">fs</text>
</g>
<!-- jk&#45;&gt;fs -->
<g id="edge28" class="edge">
<title>jk&#45;&gt;fs</title>
<path fill="none" stroke="black" d="M1149.19,-360.76C1144.58,-352.28 1138.84,-341.71 1133.68,-332.2"/>
<polygon fill="black" stroke="black" points="1136.61,-330.27 1128.77,-323.15 1130.46,-333.61 1136.61,-330.27"/>
</g>
<!-- cl -->
<g id="node15" class="node">
<title>cl</title>
<ellipse fill="none" stroke="black" cx="953" cy="-522" rx="27" ry="18"/>
<text text-anchor="middle" x="953" y="-518.3" font-family="Times,serif" font-size="14.00">cl</text>
</g>
<!-- js&#45;&gt;cl -->
<g id="edge13" class="edge">
<title>js&#45;&gt;cl</title>
<path fill="none" stroke="black" d="M969.71,-647.87C966.47,-623.67 960.52,-579.21 956.67,-550.39"/>
<polygon fill="black" stroke="black" points="960.1,-549.64 955.3,-540.19 953.16,-550.57 960.1,-549.64"/>
</g>
<!-- rx -->
<g id="node16" class="node">
<title>rx</title>
<ellipse fill="none" stroke="black" cx="953" cy="-450" rx="27" ry="18"/>
<text text-anchor="middle" x="953" y="-446.3" font-family="Times,serif" font-size="14.00">rx</text>
</g>
<!-- cl&#45;&gt;rx -->
<g id="edge14" class="edge">
<title>cl&#45;&gt;rx</title>
<path fill="none" stroke="black" d="M953,-503.7C953,-495.98 953,-486.71 953,-478.11"/>
<polygon fill="black" stroke="black" points="956.5,-478.1 953,-468.1 949.5,-478.1 956.5,-478.1"/>
</g>
<!-- rn -->
<g id="node17" class="node">
<title>rn</title>
<ellipse fill="none" stroke="black" cx="1492" cy="-594" rx="27" ry="18"/>
<text text-anchor="middle" x="1492" y="-590.3" font-family="Times,serif" font-size="14.00">rn</text>
</g>
<!-- ml -->
<g id="node18" class="node">
<title>ml</title>
<ellipse fill="none" stroke="black" cx="1640" cy="-522" rx="27" ry="18"/>
<text text-anchor="middle" x="1640" y="-518.3" font-family="Times,serif" font-size="14.00">ml</text>
</g>
<!-- rn&#45;&gt;ml -->
<g id="edge15" class="edge">
<title>rn&#45;&gt;ml</title>
<path fill="none" stroke="black" d="M1513.52,-582.82C1538.73,-570.9 1580.68,-551.06 1609.3,-537.52"/>
<polygon fill="black" stroke="black" points="1610.91,-540.63 1618.45,-533.19 1607.92,-534.3 1610.91,-540.63"/>
</g>
<!-- gk -->
<g id="node26" class="node">
<title>gk</title>
<ellipse fill="none" stroke="black" cx="1678" cy="-450" rx="27" ry="18"/>
<text text-anchor="middle" x="1678" y="-446.3" font-family="Times,serif" font-size="14.00">gk</text>
</g>
<!-- ml&#45;&gt;gk -->
<g id="edge77" class="edge">
<title>ml&#45;&gt;gk</title>
<path fill="none" stroke="black" d="M1648.81,-504.76C1653.42,-496.28 1659.16,-485.71 1664.32,-476.2"/>
<polygon fill="black" stroke="black" points="1667.54,-477.61 1669.23,-467.15 1661.39,-474.27 1667.54,-477.61"/>
</g>
<!-- ks -->
<g id="node19" class="node">
<title>ks</title>
<ellipse fill="none" stroke="black" cx="1697" cy="-306" rx="27" ry="18"/>
<text text-anchor="middle" x="1697" y="-302.3" font-family="Times,serif" font-size="14.00">ks</text>
</g>
<!-- xk -->
<g id="node20" class="node">
<title>xk</title>
<ellipse fill="none" stroke="black" cx="1754" cy="-234" rx="27" ry="18"/>
<text text-anchor="middle" x="1754" y="-230.3" font-family="Times,serif" font-size="14.00">xk</text>
</g>
<!-- ks&#45;&gt;xk -->
<g id="edge16" class="edge">
<title>ks&#45;&gt;xk</title>
<path fill="none" stroke="black" d="M1709.37,-289.81C1716.91,-280.55 1726.7,-268.52 1735.19,-258.09"/>
<polygon fill="black" stroke="black" points="1738.06,-260.12 1741.66,-250.16 1732.63,-255.7 1738.06,-260.12"/>
</g>
<!-- ks&#45;&gt;kd -->
<g id="edge17" class="edge">
<title>ks&#45;&gt;kd</title>
<path fill="none" stroke="black" d="M1678,-318.89C1646.05,-340.54 1585,-389.66 1585,-449 1585,-523 1585,-523 1585,-523 1585,-564.52 1600,-610.73 1610.9,-638.83"/>
<polygon fill="black" stroke="black" points="1607.73,-640.33 1614.69,-648.32 1614.23,-637.73 1607.73,-640.33"/>
</g>
<!-- xk&#45;&gt;kd -->
<g id="edge37" class="edge">
<title>xk&#45;&gt;kd</title>
<path fill="none" stroke="black" d="M1757.36,-251.97C1762.31,-278.52 1771,-331.56 1771,-377 1771,-523 1771,-523 1771,-523 1771,-587.25 1697.49,-631.3 1653.74,-651.83"/>
<polygon fill="black" stroke="black" points="1652.29,-648.64 1644.63,-655.96 1655.18,-655.02 1652.29,-648.64"/>
</g>
<!-- nv -->
<g id="node35" class="node">
<title>nv</title>
<ellipse fill="none" stroke="black" cx="1773" cy="-162" rx="27" ry="18"/>
<text text-anchor="middle" x="1773" y="-158.3" font-family="Times,serif" font-size="14.00">nv</text>
</g>
<!-- xk&#45;&gt;nv -->
<g id="edge36" class="edge">
<title>xk&#45;&gt;nv</title>
<path fill="none" stroke="black" d="M1758.6,-216.05C1760.75,-208.14 1763.35,-198.54 1765.76,-189.69"/>
<polygon fill="black" stroke="black" points="1769.2,-190.36 1768.44,-179.79 1762.45,-188.52 1769.2,-190.36"/>
</g>
<!-- kd&#45;&gt;qm -->
<g id="edge104" class="edge">
<title>kd&#45;&gt;qm</title>
<path fill="none" stroke="black" d="M1623.32,-684.01C1621.33,-721.16 1608.34,-809.76 1598.62,-854.38"/>
<polygon fill="black" stroke="black" points="1595.19,-853.68 1596.35,-864.21 1602.01,-855.25 1595.19,-853.68"/>
</g>
<!-- kd&#45;&gt;rn -->
<g id="edge108" class="edge">
<title>kd&#45;&gt;rn</title>
<path fill="none" stroke="black" d="M1601.69,-654.06C1580.16,-642.47 1545.95,-624.05 1521.46,-610.86"/>
<polygon fill="black" stroke="black" points="1523.06,-607.75 1512.6,-606.09 1519.74,-613.91 1523.06,-607.75"/>
</g>
<!-- kd&#45;&gt;ml -->
<g id="edge105" class="edge">
<title>kd&#45;&gt;ml</title>
<path fill="none" stroke="black" d="M1624.17,-647.87C1627.24,-623.67 1632.87,-579.21 1636.53,-550.39"/>
<polygon fill="black" stroke="black" points="1640.04,-550.55 1637.82,-540.19 1633.09,-549.67 1640.04,-550.55"/>
</g>
<!-- qv -->
<g id="node27" class="node">
<title>qv</title>
<ellipse fill="none" stroke="black" cx="1697" cy="-378" rx="27" ry="18"/>
<text text-anchor="middle" x="1697" y="-374.3" font-family="Times,serif" font-size="14.00">qv</text>
</g>
<!-- kd&#45;&gt;qv -->
<g id="edge107" class="edge">
<title>kd&#45;&gt;qv</title>
<path fill="none" stroke="black" d="M1638.18,-651.17C1648.86,-641.25 1662.43,-627.02 1671,-612 1704.08,-553.98 1704.34,-534.09 1714,-468 1716.31,-452.17 1716.47,-447.81 1714,-432 1712.62,-423.18 1710.02,-413.82 1707.26,-405.46"/>
<polygon fill="black" stroke="black" points="1710.51,-404.13 1703.89,-395.86 1703.9,-406.45 1710.51,-404.13"/>
</g>
<!-- ts -->
<g id="node59" class="node">
<title>ts</title>
<ellipse fill="none" stroke="black" cx="1382" cy="-594" rx="27" ry="18"/>
<text text-anchor="middle" x="1382" y="-590.3" font-family="Times,serif" font-size="14.00">ts</text>
</g>
<!-- kd&#45;&gt;ts -->
<g id="edge106" class="edge">
<title>kd&#45;&gt;ts</title>
<path fill="none" stroke="black" d="M1597.67,-657.9C1554.72,-645.38 1465.39,-619.32 1416.24,-604.99"/>
<polygon fill="black" stroke="black" points="1416.98,-601.56 1406.4,-602.12 1415.02,-608.28 1416.98,-601.56"/>
</g>
<!-- pc -->
<g id="node48" class="node">
<title>pc</title>
<ellipse fill="none" stroke="black" cx="207" cy="-522" rx="27" ry="18"/>
<text text-anchor="middle" x="207" y="-518.3" font-family="Times,serif" font-size="14.00">pc</text>
</g>
<!-- jp&#45;&gt;pc -->
<g id="edge99" class="edge">
<title>jp&#45;&gt;pc</title>
<path fill="none" stroke="black" d="M129.42,-580.16C143.93,-569.47 164.79,-554.1 181.23,-541.99"/>
<polygon fill="black" stroke="black" points="183.39,-544.74 189.36,-535.99 179.24,-539.11 183.39,-544.74"/>
</g>
<!-- qd -->
<g id="node28" class="node">
<title>qd</title>
<ellipse fill="none" stroke="black" cx="112" cy="-666" rx="27" ry="18"/>
<text text-anchor="middle" x="112" y="-662.3" font-family="Times,serif" font-size="14.00">qd</text>
</g>
<!-- sk&#45;&gt;qd -->
<g id="edge72" class="edge">
<title>sk&#45;&gt;qd</title>
<path fill="none" stroke="black" d="M126.4,-720.05C124.25,-712.14 121.65,-702.54 119.24,-693.69"/>
<polygon fill="black" stroke="black" points="122.55,-692.52 116.56,-683.79 115.8,-694.36 122.55,-692.52"/>
</g>
<!-- dt&#45;&gt;cl -->
<g id="edge93" class="edge">
<title>dt&#45;&gt;cl</title>
<path fill="none" stroke="black" d="M854.1,-792.39C871.61,-744.7 922.12,-607.11 943.38,-549.19"/>
<polygon fill="black" stroke="black" points="946.72,-550.25 946.88,-539.66 940.15,-547.84 946.72,-550.25"/>
</g>
<!-- rp -->
<g id="node33" class="node">
<title>rp</title>
<ellipse fill="none" stroke="black" cx="300" cy="-306" rx="27" ry="18"/>
<text text-anchor="middle" x="300" y="-302.3" font-family="Times,serif" font-size="14.00">rp</text>
</g>
<!-- gb&#45;&gt;rp -->
<g id="edge63" class="edge">
<title>gb&#45;&gt;rp</title>
<path fill="none" stroke="black" d="M240.98,-362.83C251.51,-352.87 265.78,-339.37 277.66,-328.14"/>
<polygon fill="black" stroke="black" points="280.19,-330.56 285.05,-321.14 275.38,-325.47 280.19,-330.56"/>
</g>
<!-- gk&#45;&gt;kd -->
<g id="edge24" class="edge">
<title>gk&#45;&gt;kd</title>
<path fill="none" stroke="black" d="M1679.54,-468.29C1680.72,-486.39 1681.33,-515.54 1676,-540 1668.09,-576.3 1649.55,-615.13 1636.4,-639.71"/>
<polygon fill="black" stroke="black" points="1633.21,-638.25 1631.49,-648.71 1639.35,-641.61 1633.21,-638.25"/>
</g>
<!-- gk&#45;&gt;qv -->
<g id="edge23" class="edge">
<title>gk&#45;&gt;qv</title>
<path fill="none" stroke="black" d="M1682.6,-432.05C1684.75,-424.14 1687.35,-414.54 1689.76,-405.69"/>
<polygon fill="black" stroke="black" points="1693.2,-406.36 1692.44,-395.79 1686.45,-404.52 1693.2,-406.36"/>
</g>
<!-- qv&#45;&gt;ks -->
<g id="edge38" class="edge">
<title>qv&#45;&gt;ks</title>
<path fill="none" stroke="black" d="M1697,-359.7C1697,-351.98 1697,-342.71 1697,-334.11"/>
<polygon fill="black" stroke="black" points="1700.5,-334.1 1697,-324.1 1693.5,-334.1 1700.5,-334.1"/>
</g>
<!-- qd&#45;&gt;cm -->
<g id="edge27" class="edge">
<title>qd&#45;&gt;cm</title>
<path fill="none" stroke="black" d="M105.11,-683.86C101.3,-694.12 96.94,-707.59 95,-720 92.53,-735.81 92.15,-740.26 95,-756 107.2,-823.26 102.63,-849.78 149,-900 169.8,-922.53 202.13,-936.35 226.89,-944.2"/>
<polygon fill="black" stroke="black" points="226.06,-947.6 236.64,-947.11 228.06,-940.9 226.06,-947.6"/>
</g>
<!-- qd&#45;&gt;jp -->
<g id="edge26" class="edge">
<title>qd&#45;&gt;jp</title>
<path fill="none" stroke="black" d="M112,-647.7C112,-639.98 112,-630.71 112,-622.11"/>
<polygon fill="black" stroke="black" points="115.5,-622.1 112,-612.1 108.5,-622.1 115.5,-622.1"/>
</g>
<!-- fs&#45;&gt;zz -->
<g id="edge102" class="edge">
<title>fs&#45;&gt;zz</title>
<path fill="none" stroke="black" d="M1116.64,-323.97C1111.69,-350.52 1103,-403.56 1103,-449 1103,-595 1103,-595 1103,-595 1103,-641.88 1135.6,-688.26 1158.09,-714.69"/>
<polygon fill="black" stroke="black" points="1155.48,-717.02 1164.7,-722.23 1160.74,-712.4 1155.48,-717.02"/>
</g>
<!-- lh -->
<g id="node39" class="node">
<title>lh</title>
<ellipse fill="none" stroke="black" cx="1101" cy="-234" rx="27" ry="18"/>
<text text-anchor="middle" x="1101" y="-230.3" font-family="Times,serif" font-size="14.00">lh</text>
</g>
<!-- fs&#45;&gt;lh -->
<g id="edge103" class="edge">
<title>fs&#45;&gt;lh</title>
<path fill="none" stroke="black" d="M1115.4,-288.05C1113.25,-280.14 1110.65,-270.54 1108.24,-261.69"/>
<polygon fill="black" stroke="black" points="1111.55,-260.52 1105.56,-251.79 1104.8,-262.36 1111.55,-260.52"/>
</g>
<!-- vq -->
<g id="node30" class="node">
<title>vq</title>
<ellipse fill="none" stroke="black" cx="1773" cy="-90" rx="27" ry="18"/>
<text text-anchor="middle" x="1773" y="-86.3" font-family="Times,serif" font-size="14.00">vq</text>
</g>
<!-- vq&#45;&gt;kd -->
<g id="edge30" class="edge">
<title>vq&#45;&gt;kd</title>
<path fill="none" stroke="black" d="M1746.63,-94.87C1687.02,-105.27 1547,-139.63 1547,-233 1547,-523 1547,-523 1547,-523 1547,-569.54 1578.89,-615.77 1601.08,-642.3"/>
<polygon fill="black" stroke="black" points="1598.71,-644.91 1607.89,-650.19 1604.01,-640.33 1598.71,-644.91"/>
</g>
<!-- qj -->
<g id="node31" class="node">
<title>qj</title>
<ellipse fill="none" stroke="black" cx="1819" cy="-18" rx="27" ry="18"/>
<text text-anchor="middle" x="1819" y="-14.3" font-family="Times,serif" font-size="14.00">qj</text>
</g>
<!-- vq&#45;&gt;qj -->
<g id="edge29" class="edge">
<title>vq&#45;&gt;qj</title>
<path fill="none" stroke="black" d="M1783.44,-73.12C1789.2,-64.34 1796.48,-53.26 1802.96,-43.42"/>
<polygon fill="black" stroke="black" points="1806.04,-45.1 1808.6,-34.82 1800.19,-41.26 1806.04,-45.1"/>
</g>
<!-- qj&#45;&gt;kd -->
<g id="edge87" class="edge">
<title>qj&#45;&gt;kd</title>
<path fill="none" stroke="black" d="M1824.53,-35.84C1832.69,-62.21 1847,-115.02 1847,-161 1847,-523 1847,-523 1847,-523 1847,-611.17 1721.92,-646.8 1658.28,-659.22"/>
<polygon fill="black" stroke="black" points="1657.44,-655.82 1648.25,-661.09 1658.72,-662.7 1657.44,-655.82"/>
</g>
<!-- cx&#45;&gt;zz -->
<g id="edge90" class="edge">
<title>cx&#45;&gt;zz</title>
<path fill="none" stroke="black" d="M1194.97,-468.31C1192.12,-516.31 1184.09,-651.44 1180.62,-709.7"/>
<polygon fill="black" stroke="black" points="1177.11,-709.78 1180.01,-719.97 1184.1,-710.19 1177.11,-709.78"/>
</g>
<!-- cx&#45;&gt;jk -->
<g id="edge89" class="edge">
<title>cx&#45;&gt;jk</title>
<path fill="none" stroke="black" d="M1187.19,-432.76C1182.58,-424.28 1176.84,-413.71 1171.68,-404.2"/>
<polygon fill="black" stroke="black" points="1174.61,-402.27 1166.77,-395.15 1168.46,-405.61 1174.61,-402.27"/>
</g>
<!-- rp&#45;&gt;cm -->
<g id="edge35" class="edge">
<title>rp&#45;&gt;cm</title>
<path fill="none" stroke="black" d="M300,-324.05C300,-350.71 300,-403.89 300,-449 300,-811 300,-811 300,-811 300,-852.59 284.6,-898.78 273.4,-926.86"/>
<polygon fill="black" stroke="black" points="270.07,-925.76 269.51,-936.34 276.55,-928.42 270.07,-925.76"/>
</g>
<!-- bk -->
<g id="node34" class="node">
<title>bk</title>
<ellipse fill="none" stroke="black" cx="410" cy="-234" rx="27" ry="18"/>
<text text-anchor="middle" x="410" y="-230.3" font-family="Times,serif" font-size="14.00">bk</text>
</g>
<!-- rp&#45;&gt;bk -->
<g id="edge34" class="edge">
<title>rp&#45;&gt;bk</title>
<path fill="none" stroke="black" d="M319.16,-292.81C336.67,-281.67 362.76,-265.06 382.49,-252.5"/>
<polygon fill="black" stroke="black" points="384.5,-255.37 391.06,-247.05 380.74,-249.47 384.5,-255.37"/>
</g>
<!-- bk&#45;&gt;bd -->
<g id="edge75" class="edge">
<title>bk&#45;&gt;bd</title>
<path fill="none" stroke="black" d="M417.51,-251.66C428.58,-277.8 448,-330.3 448,-377 448,-955 448,-955 448,-955 448,-1014.31 385.5,-1059.43 346.84,-1081.67"/>
<polygon fill="black" stroke="black" points="345.08,-1078.65 338.05,-1086.58 348.49,-1084.76 345.08,-1078.65"/>
</g>
<!-- bk&#45;&gt;cm -->
<g id="edge76" class="edge">
<title>bk&#45;&gt;cm</title>
<path fill="none" stroke="black" d="M410,-252.05C410,-278.71 410,-331.89 410,-377 410,-811 410,-811 410,-811 410,-851.45 416.92,-868.95 391,-900 367.75,-927.85 327.53,-941.25 298.16,-947.58"/>
<polygon fill="black" stroke="black" points="297.4,-944.17 288.27,-949.54 298.76,-951.03 297.4,-944.17"/>
</g>
<!-- nv&#45;&gt;kd -->
<g id="edge81" class="edge">
<title>nv&#45;&gt;kd</title>
<path fill="none" stroke="black" d="M1780.11,-179.7C1790.6,-205.89 1809,-258.46 1809,-305 1809,-523 1809,-523 1809,-523 1809,-598.64 1710.77,-639.23 1656.7,-655.84"/>
<polygon fill="black" stroke="black" points="1655.43,-652.56 1646.83,-658.76 1657.41,-659.28 1655.43,-652.56"/>
</g>
<!-- nv&#45;&gt;vq -->
<g id="edge80" class="edge">
<title>nv&#45;&gt;vq</title>
<path fill="none" stroke="black" d="M1773,-143.7C1773,-135.98 1773,-126.71 1773,-118.11"/>
<polygon fill="black" stroke="black" points="1776.5,-118.1 1773,-108.1 1769.5,-118.1 1776.5,-118.1"/>
</g>
<!-- xg -->
<g id="node37" class="node">
<title>xg</title>
<ellipse fill="none" stroke="black" cx="612" cy="-738" rx="27" ry="18"/>
<text text-anchor="middle" x="612" y="-734.3" font-family="Times,serif" font-size="14.00">xg</text>
</g>
<!-- mj&#45;&gt;xg -->
<g id="edge39" class="edge">
<title>mj&#45;&gt;xg</title>
<path fill="none" stroke="black" d="M641.19,-792.76C636.58,-784.28 630.84,-773.71 625.68,-764.2"/>
<polygon fill="black" stroke="black" points="628.61,-762.27 620.77,-755.15 622.46,-765.61 628.61,-762.27"/>
</g>
<!-- mj&#45;&gt;mh -->
<g id="edge40" class="edge">
<title>mj&#45;&gt;mh</title>
<path fill="none" stroke="black" d="M654.86,-792.15C661.89,-767.81 674.96,-722.57 683.3,-693.67"/>
<polygon fill="black" stroke="black" points="686.73,-694.4 686.14,-683.82 680.01,-692.46 686.73,-694.4"/>
</g>
<!-- xg&#45;&gt;mh -->
<g id="edge82" class="edge">
<title>xg&#45;&gt;mh</title>
<path fill="none" stroke="black" d="M627.61,-723.17C639.08,-713.01 654.85,-699.03 667.79,-687.56"/>
<polygon fill="black" stroke="black" points="670.26,-690.05 675.42,-680.8 665.62,-684.81 670.26,-690.05"/>
</g>
<!-- vs -->
<g id="node42" class="node">
<title>vs</title>
<ellipse fill="none" stroke="black" cx="541" cy="-594" rx="27" ry="18"/>
<text text-anchor="middle" x="541" y="-590.3" font-family="Times,serif" font-size="14.00">vs</text>
</g>
<!-- xg&#45;&gt;vs -->
<g id="edge83" class="edge">
<title>xg&#45;&gt;vs</title>
<path fill="none" stroke="black" d="M603.86,-720.71C591.62,-696.23 568.37,-649.74 553.83,-620.67"/>
<polygon fill="black" stroke="black" points="556.87,-618.92 549.27,-611.54 550.61,-622.05 556.87,-618.92"/>
</g>
<!-- mh&#45;&gt;ct -->
<g id="edge43" class="edge">
<title>mh&#45;&gt;ct</title>
<path fill="none" stroke="black" d="M696.62,-683.64C704.15,-720.37 713.93,-808.67 715.75,-853.66"/>
<polygon fill="black" stroke="black" points="712.26,-853.95 716.03,-863.85 719.25,-853.76 712.26,-853.95"/>
</g>
<!-- qs -->
<g id="node41" class="node">
<title>qs</title>
<ellipse fill="none" stroke="black" cx="879" cy="-594" rx="27" ry="18"/>
<text text-anchor="middle" x="879" y="-590.3" font-family="Times,serif" font-size="14.00">qs</text>
</g>
<!-- mh&#45;&gt;qs -->
<g id="edge44" class="edge">
<title>mh&#45;&gt;qs</title>
<path fill="none" stroke="black" d="M714.55,-656.89C743.68,-646.77 794.74,-628.76 838,-612 840.92,-610.87 843.95,-609.67 846.98,-608.45"/>
<polygon fill="black" stroke="black" points="848.59,-611.57 856.52,-604.54 845.94,-605.09 848.59,-611.57"/>
</g>
<!-- mh&#45;&gt;vs -->
<g id="edge45" class="edge">
<title>mh&#45;&gt;vs</title>
<path fill="none" stroke="black" d="M669.51,-654.97C643.89,-643.02 600.89,-622.95 571.76,-609.35"/>
<polygon fill="black" stroke="black" points="572.99,-606.07 562.45,-605.01 570.03,-612.41 572.99,-606.07"/>
</g>
<!-- vk -->
<g id="node43" class="node">
<title>vk</title>
<ellipse fill="none" stroke="black" cx="693" cy="-306" rx="27" ry="18"/>
<text text-anchor="middle" x="693" y="-302.3" font-family="Times,serif" font-size="14.00">vk</text>
</g>
<!-- mh&#45;&gt;vk -->
<g id="edge46" class="edge">
<title>mh&#45;&gt;vk</title>
<path fill="none" stroke="black" d="M694.75,-648.05C700.29,-621.52 710,-568.52 710,-523 710,-523 710,-523 710,-449 710,-408.71 703.17,-362.44 698.17,-333.96"/>
<polygon fill="black" stroke="black" points="701.58,-333.19 696.36,-323.97 694.7,-334.43 701.58,-333.19"/>
</g>
<!-- pg -->
<g id="node44" class="node">
<title>pg</title>
<ellipse fill="none" stroke="black" cx="579" cy="-522" rx="27" ry="18"/>
<text text-anchor="middle" x="579" y="-518.3" font-family="Times,serif" font-size="14.00">pg</text>
</g>
<!-- mh&#45;&gt;pg -->
<g id="edge47" class="edge">
<title>mh&#45;&gt;pg</title>
<path fill="none" stroke="black" d="M670.77,-653.72C655.24,-644.24 634.13,-629.45 620,-612 604.92,-593.37 594.02,-568.29 587.26,-549.5"/>
<polygon fill="black" stroke="black" points="590.49,-548.11 583.94,-539.79 583.87,-550.38 590.49,-548.11"/>
</g>
<!-- lh&#45;&gt;zz -->
<g id="edge41" class="edge">
<title>lh&#45;&gt;zz</title>
<path fill="none" stroke="black" d="M1093.89,-251.7C1083.4,-277.89 1065,-330.46 1065,-377 1065,-595 1065,-595 1065,-595 1065,-649.85 1117.36,-695.58 1151.11,-719.35"/>
<polygon fill="black" stroke="black" points="1149.43,-722.44 1159.66,-725.19 1153.38,-716.66 1149.43,-722.44"/>
</g>
<!-- pz -->
<g id="node40" class="node">
<title>pz</title>
<ellipse fill="none" stroke="black" cx="1101" cy="-162" rx="27" ry="18"/>
<text text-anchor="middle" x="1101" y="-158.3" font-family="Times,serif" font-size="14.00">pz</text>
</g>
<!-- lh&#45;&gt;pz -->
<g id="edge42" class="edge">
<title>lh&#45;&gt;pz</title>
<path fill="none" stroke="black" d="M1101,-215.7C1101,-207.98 1101,-198.71 1101,-190.11"/>
<polygon fill="black" stroke="black" points="1104.5,-190.1 1101,-180.1 1097.5,-190.1 1104.5,-190.1"/>
</g>
<!-- pz&#45;&gt;zz -->
<g id="edge65" class="edge">
<title>pz&#45;&gt;zz</title>
<path fill="none" stroke="black" d="M1087.08,-177.84C1065.65,-202.32 1027,-253.57 1027,-305 1027,-595 1027,-595 1027,-595 1027,-640.37 1044.4,-652.45 1077,-684 1096.52,-702.9 1124.13,-716.68 1145.7,-725.45"/>
<polygon fill="black" stroke="black" points="1144.55,-728.76 1155.14,-729.13 1147.09,-722.24 1144.55,-728.76"/>
</g>
<!-- mf -->
<g id="node54" class="node">
<title>mf</title>
<ellipse fill="none" stroke="black" cx="1327" cy="-90" rx="27" ry="18"/>
<text text-anchor="middle" x="1327" y="-86.3" font-family="Times,serif" font-size="14.00">mf</text>
</g>
<!-- pz&#45;&gt;mf -->
<g id="edge64" class="edge">
<title>pz&#45;&gt;mf</title>
<path fill="none" stroke="black" d="M1125.19,-153.51C1165.63,-140.98 1247.06,-115.76 1293.17,-101.48"/>
<polygon fill="black" stroke="black" points="1294.47,-104.74 1302.99,-98.44 1292.4,-98.05 1294.47,-104.74"/>
</g>
<!-- qs&#45;&gt;cl -->
<g id="edge88" class="edge">
<title>qs&#45;&gt;cl</title>
<path fill="none" stroke="black" d="M893.98,-578.83C904.51,-568.87 918.78,-555.37 930.66,-544.14"/>
<polygon fill="black" stroke="black" points="933.19,-546.56 938.05,-537.14 928.38,-541.47 933.19,-546.56"/>
</g>
<!-- vs&#45;&gt;pg -->
<g id="edge96" class="edge">
<title>vs&#45;&gt;pg</title>
<path fill="none" stroke="black" d="M549.81,-576.76C554.42,-568.28 560.16,-557.71 565.32,-548.2"/>
<polygon fill="black" stroke="black" points="568.54,-549.61 570.23,-539.15 562.39,-546.27 568.54,-549.61"/>
</g>
<!-- jg -->
<g id="node58" class="node">
<title>jg</title>
<ellipse fill="none" stroke="black" cx="731" cy="-234" rx="27" ry="18"/>
<text text-anchor="middle" x="731" y="-230.3" font-family="Times,serif" font-size="14.00">jg</text>
</g>
<!-- vk&#45;&gt;jg -->
<g id="edge86" class="edge">
<title>vk&#45;&gt;jg</title>
<path fill="none" stroke="black" d="M701.81,-288.76C706.42,-280.28 712.16,-269.71 717.32,-260.2"/>
<polygon fill="black" stroke="black" points="720.54,-261.61 722.23,-251.15 714.39,-258.27 720.54,-261.61"/>
</g>
<!-- lz -->
<g id="node47" class="node">
<title>lz</title>
<ellipse fill="none" stroke="black" cx="617" cy="-450" rx="27" ry="18"/>
<text text-anchor="middle" x="617" y="-446.3" font-family="Times,serif" font-size="14.00">lz</text>
</g>
<!-- pg&#45;&gt;lz -->
<g id="edge50" class="edge">
<title>pg&#45;&gt;lz</title>
<path fill="none" stroke="black" d="M587.81,-504.76C592.42,-496.28 598.16,-485.71 603.32,-476.2"/>
<polygon fill="black" stroke="black" points="606.54,-477.61 608.23,-467.15 600.39,-474.27 606.54,-477.61"/>
</g>
<!-- kb&#45;&gt;kd -->
<g id="edge49" class="edge">
<title>kb&#45;&gt;kd</title>
<path fill="none" stroke="black" d="M1565.47,-792.43C1576.5,-767.96 1597.25,-721.91 1610.31,-692.94"/>
<polygon fill="black" stroke="black" points="1613.66,-694.02 1614.58,-683.46 1607.28,-691.14 1613.66,-694.02"/>
</g>
<!-- hv -->
<g id="node46" class="node">
<title>hv</title>
<ellipse fill="none" stroke="black" cx="1520" cy="-738" rx="27" ry="18"/>
<text text-anchor="middle" x="1520" y="-734.3" font-family="Times,serif" font-size="14.00">hv</text>
</g>
<!-- kb&#45;&gt;hv -->
<g id="edge48" class="edge">
<title>kb&#45;&gt;hv</title>
<path fill="none" stroke="black" d="M1549.19,-792.76C1544.58,-784.28 1538.84,-773.71 1533.68,-764.2"/>
<polygon fill="black" stroke="black" points="1536.61,-762.27 1528.77,-755.15 1530.46,-765.61 1536.61,-762.27"/>
</g>
<!-- hv&#45;&gt;rn -->
<g id="edge56" class="edge">
<title>hv&#45;&gt;rn</title>
<path fill="none" stroke="black" d="M1516.62,-719.87C1511.83,-695.56 1503.01,-650.82 1497.33,-622.01"/>
<polygon fill="black" stroke="black" points="1500.76,-621.32 1495.39,-612.19 1493.89,-622.68 1500.76,-621.32"/>
</g>
<!-- hv&#45;&gt;kd -->
<g id="edge55" class="edge">
<title>hv&#45;&gt;kd</title>
<path fill="none" stroke="black" d="M1538.24,-724.49C1554.19,-713.54 1577.57,-697.49 1595.57,-685.14"/>
<polygon fill="black" stroke="black" points="1597.66,-687.95 1603.92,-679.41 1593.7,-682.18 1597.66,-687.95"/>
</g>
<!-- lz&#45;&gt;mh -->
<g id="edge95" class="edge">
<title>lz&#45;&gt;mh</title>
<path fill="none" stroke="black" d="M619.56,-468.01C624.46,-498 636.61,-561.86 658,-612 662.23,-621.92 668.15,-632.13 673.82,-640.91"/>
<polygon fill="black" stroke="black" points="671.07,-643.1 679.54,-649.46 676.89,-639.21 671.07,-643.1"/>
</g>
<!-- tk -->
<g id="node57" class="node">
<title>tk</title>
<ellipse fill="none" stroke="black" cx="655" cy="-378" rx="27" ry="18"/>
<text text-anchor="middle" x="655" y="-374.3" font-family="Times,serif" font-size="14.00">tk</text>
</g>
<!-- lz&#45;&gt;tk -->
<g id="edge94" class="edge">
<title>lz&#45;&gt;tk</title>
<path fill="none" stroke="black" d="M625.81,-432.76C630.42,-424.28 636.16,-413.71 641.32,-404.2"/>
<polygon fill="black" stroke="black" points="644.54,-405.61 646.23,-395.15 638.39,-402.27 644.54,-405.61"/>
</g>
<!-- pc&#45;&gt;cm -->
<g id="edge53" class="edge">
<title>pc&#45;&gt;cm</title>
<path fill="none" stroke="black" d="M210.36,-539.97C215.31,-566.52 224,-619.56 224,-665 224,-811 224,-811 224,-811 224,-852.59 239.4,-898.78 250.6,-926.86"/>
<polygon fill="black" stroke="black" points="247.45,-928.42 254.49,-936.34 253.93,-925.76 247.45,-928.42"/>
</g>
<!-- xl -->
<g id="node49" class="node">
<title>xl</title>
<ellipse fill="none" stroke="black" cx="226" cy="-450" rx="27" ry="18"/>
<text text-anchor="middle" x="226" y="-446.3" font-family="Times,serif" font-size="14.00">xl</text>
</g>
<!-- pc&#45;&gt;xl -->
<g id="edge54" class="edge">
<title>pc&#45;&gt;xl</title>
<path fill="none" stroke="black" d="M211.6,-504.05C213.75,-496.14 216.35,-486.54 218.76,-477.69"/>
<polygon fill="black" stroke="black" points="222.2,-478.36 221.44,-467.79 215.45,-476.52 222.2,-478.36"/>
</g>
<!-- xl&#45;&gt;cm -->
<g id="edge60" class="edge">
<title>xl&#45;&gt;cm</title>
<path fill="none" stroke="black" d="M233.11,-467.7C243.6,-493.89 262,-546.46 262,-593 262,-811 262,-811 262,-811 262,-851 262,-897.35 262,-925.92"/>
<polygon fill="black" stroke="black" points="258.5,-925.95 262,-935.95 265.5,-925.95 258.5,-925.95"/>
</g>
<!-- xl&#45;&gt;gb -->
<g id="edge61" class="edge">
<title>xl&#45;&gt;gb</title>
<path fill="none" stroke="black" d="M226,-431.7C226,-423.98 226,-414.71 226,-406.11"/>
<polygon fill="black" stroke="black" points="229.5,-406.1 226,-396.1 222.5,-406.1 229.5,-406.1"/>
</g>
<!-- fr -->
<g id="node50" class="node">
<title>fr</title>
<ellipse fill="none" stroke="black" cx="750" cy="-162" rx="27" ry="18"/>
<text text-anchor="middle" x="750" y="-158.3" font-family="Times,serif" font-size="14.00">fr</text>
</g>
<!-- fr&#45;&gt;mh -->
<g id="edge58" class="edge">
<title>fr&#45;&gt;mh</title>
<path fill="none" stroke="black" d="M757.11,-179.7C767.6,-205.89 786,-258.46 786,-305 786,-523 786,-523 786,-523 786,-573.48 744.01,-619.61 715.86,-644.85"/>
<polygon fill="black" stroke="black" points="713.23,-642.5 707.98,-651.7 717.83,-647.78 713.23,-642.5"/>
</g>
<!-- fl -->
<g id="node51" class="node">
<title>fl</title>
<ellipse fill="none" stroke="black" cx="750" cy="-90" rx="27" ry="18"/>
<text text-anchor="middle" x="750" y="-86.3" font-family="Times,serif" font-size="14.00">fl</text>
</g>
<!-- fr&#45;&gt;fl -->
<g id="edge57" class="edge">
<title>fr&#45;&gt;fl</title>
<path fill="none" stroke="black" d="M750,-143.7C750,-135.98 750,-126.71 750,-118.11"/>
<polygon fill="black" stroke="black" points="753.5,-118.1 750,-108.1 746.5,-118.1 753.5,-118.1"/>
</g>
<!-- fl&#45;&gt;mh -->
<g id="edge69" class="edge">
<title>fl&#45;&gt;mh</title>
<path fill="none" stroke="black" d="M723.23,-92.91C656.12,-99.3 486,-126.05 486,-233 486,-523 486,-523 486,-523 486,-563.45 477.38,-582.45 505,-612 543.47,-653.15 611.41,-663.13 653.67,-665.12"/>
<polygon fill="black" stroke="black" points="653.71,-668.62 663.82,-665.46 653.95,-661.62 653.71,-668.62"/>
</g>
<!-- tp -->
<g id="node53" class="node">
<title>tp</title>
<ellipse fill="none" stroke="black" cx="797" cy="-18" rx="27" ry="18"/>
<text text-anchor="middle" x="797" y="-14.3" font-family="Times,serif" font-size="14.00">tp</text>
</g>
<!-- fl&#45;&gt;tp -->
<g id="edge68" class="edge">
<title>fl&#45;&gt;tp</title>
<path fill="none" stroke="black" d="M760.67,-73.12C766.55,-64.34 773.99,-53.26 780.61,-43.42"/>
<polygon fill="black" stroke="black" points="783.71,-45.07 786.38,-34.82 777.9,-41.17 783.71,-45.07"/>
</g>
<!-- mp -->
<g id="node52" class="node">
<title>mp</title>
<ellipse fill="none" stroke="black" cx="1382" cy="-18" rx="27" ry="18"/>
<text text-anchor="middle" x="1382" y="-14.3" font-family="Times,serif" font-size="14.00">mp</text>
</g>
<!-- mp&#45;&gt;zz -->
<g id="edge59" class="edge">
<title>mp&#45;&gt;zz</title>
<path fill="none" stroke="black" d="M1392.6,-34.84C1408.59,-60.28 1437,-112.36 1437,-161 1437,-595 1437,-595 1437,-595 1437,-636.89 1437.14,-655.99 1406,-684 1378.24,-708.97 1272.57,-725.48 1215.72,-732.75"/>
<polygon fill="black" stroke="black" points="1215.19,-729.29 1205.7,-734 1216.06,-736.24 1215.19,-729.29"/>
</g>
<!-- tp&#45;&gt;mh -->
<g id="edge62" class="edge">
<title>tp&#45;&gt;mh</title>
<path fill="none" stroke="black" d="M802.33,-35.85C810.2,-62.25 824,-115.08 824,-161 824,-523 824,-523 824,-523 824,-582.73 760.55,-627.69 721.3,-649.79"/>
<polygon fill="black" stroke="black" points="719.47,-646.8 712.37,-654.66 722.82,-652.95 719.47,-646.8"/>
</g>
<!-- mf&#45;&gt;zz -->
<g id="edge92" class="edge">
<title>mf&#45;&gt;zz</title>
<path fill="none" stroke="black" d="M1327,-108.05C1327,-134.71 1327,-187.89 1327,-233 1327,-523 1327,-523 1327,-523 1327,-601.57 1310.34,-629.24 1254,-684 1239.99,-697.62 1222.2,-710.35 1207.47,-719.91"/>
<polygon fill="black" stroke="black" points="1205.32,-717.13 1198.75,-725.44 1209.07,-723.04 1205.32,-717.13"/>
</g>
<!-- mf&#45;&gt;mp -->
<g id="edge91" class="edge">
<title>mf&#45;&gt;mp</title>
<path fill="none" stroke="black" d="M1338.93,-73.81C1346.21,-64.55 1355.66,-52.52 1363.85,-42.09"/>
<polygon fill="black" stroke="black" points="1366.66,-44.18 1370.09,-34.16 1361.16,-39.86 1366.66,-44.18"/>
</g>
<!-- qn&#45;&gt;cm -->
<g id="edge66" class="edge">
<title>qn&#45;&gt;cm</title>
<path fill="none" stroke="black" d="M174.69,-827.65C181.49,-846.23 193.97,-876.75 210,-900 218.08,-911.72 228.88,-923.2 238.53,-932.45"/>
<polygon fill="black" stroke="black" points="236.25,-935.12 245.96,-939.37 241.02,-929.99 236.25,-935.12"/>
</g>
<!-- qn&#45;&gt;sk -->
<g id="edge67" class="edge">
<title>qn&#45;&gt;sk</title>
<path fill="none" stroke="black" d="M160.19,-792.76C155.58,-784.28 149.84,-773.71 144.68,-764.2"/>
<polygon fill="black" stroke="black" points="147.61,-762.27 139.77,-755.15 141.46,-765.61 147.61,-762.27"/>
</g>
<!-- zq&#45;&gt;zz -->
<g id="edge71" class="edge">
<title>zq&#45;&gt;zz</title>
<path fill="none" stroke="black" d="M1229.43,-794.15C1220.69,-784.6 1209.17,-771.99 1199.34,-761.25"/>
<polygon fill="black" stroke="black" points="1201.88,-758.84 1192.55,-753.82 1196.72,-763.57 1201.88,-758.84"/>
</g>
<!-- zq&#45;&gt;th -->
<g id="edge70" class="edge">
<title>zq&#45;&gt;th</title>
<path fill="none" stroke="black" d="M1256.35,-794.07C1278.7,-769.08 1323.82,-718.63 1349.99,-689.38"/>
<polygon fill="black" stroke="black" points="1352.77,-691.52 1356.83,-681.73 1347.55,-686.85 1352.77,-691.52"/>
</g>
<!-- tk&#45;&gt;mh -->
<g id="edge73" class="edge">
<title>tk&#45;&gt;mh</title>
<path fill="none" stroke="black" d="M657.13,-395.94C663.15,-443.72 680.28,-579.81 687.61,-638.04"/>
<polygon fill="black" stroke="black" points="684.13,-638.48 688.86,-647.97 691.08,-637.61 684.13,-638.48"/>
</g>
<!-- tk&#45;&gt;vk -->
<g id="edge74" class="edge">
<title>tk&#45;&gt;vk</title>
<path fill="none" stroke="black" d="M663.81,-360.76C668.42,-352.28 674.16,-341.71 679.32,-332.2"/>
<polygon fill="black" stroke="black" points="682.54,-333.61 684.23,-323.15 676.39,-330.27 682.54,-333.61"/>
</g>
<!-- jg&#45;&gt;mh -->
<g id="edge79" class="edge">
<title>jg&#45;&gt;mh</title>
<path fill="none" stroke="black" d="M734.36,-251.97C739.31,-278.52 748,-331.56 748,-377 748,-523 748,-523 748,-523 748,-566.91 724.23,-613.33 707.39,-640.7"/>
<polygon fill="black" stroke="black" points="704.39,-638.9 701.99,-649.22 710.3,-642.65 704.39,-638.9"/>
</g>
<!-- jg&#45;&gt;fr -->
<g id="edge78" class="edge">
<title>jg&#45;&gt;fr</title>
<path fill="none" stroke="black" d="M735.6,-216.05C737.75,-208.14 740.35,-198.54 742.76,-189.69"/>
<polygon fill="black" stroke="black" points="746.2,-190.36 745.44,-179.79 739.45,-188.52 746.2,-190.36"/>
</g>
<!-- ts&#45;&gt;cl -->
<g id="edge109" class="edge">
<title>ts&#45;&gt;cl</title>
<path fill="none" stroke="black" d="M1357.1,-586.77C1342.79,-583.32 1324.45,-579.11 1308,-576 1192.29,-554.11 1053.96,-535.65 989.46,-527.49"/>
<polygon fill="black" stroke="black" points="989.75,-524 979.39,-526.23 988.88,-530.95 989.75,-524"/>
</g>
</g>
</svg>
